<svg xmlns="http://www.w3.org/2000/svg" version="1.1" width="85px" height="85px" style="shape-rendering:geometricPrecision; text-rendering:geometricPrecision; image-rendering:optimizeQuality; fill-rule:evenodd; clip-rule:evenodd" xmlns:xlink="http://www.w3.org/1999/xlink">
<g></g>
<g><path style="opacity: 1; visibility: visible; fill: rgb(0, 104, 74);" fill="#2c674d" d="M 23.5,36.5 C 23.44,35.9569 23.1067,35.6236 22.5,35.5C 21.5008,49.1504 21.1675,62.8171 21.5,76.5C 16.5,76.5 11.5,76.5 6.5,76.5C 6.5,53.5 6.5,30.5 6.5,7.5C 11.544,7.17252 16.544,7.50585 21.5,8.5C 28.089,18.0108 34.9223,27.3442 42,36.5C 48.6401,27.0263 55.4735,17.693 62.5,8.5C 67.456,7.50585 72.456,7.17252 77.5,7.5C 77.5,30.5 77.5,53.5 77.5,76.5C 72.1667,76.5 66.8333,76.5 61.5,76.5C 61.6666,62.8293 61.4999,49.1626 61,35.5C 55.0457,44.6148 48.5457,53.2815 41.5,61.5C 35.2455,53.3139 29.2455,44.9805 23.5,36.5 Z" data-index="1"></path></g>
<g><path style="opacity:1" fill="#628e7a" d="M 23.5,36.5 C 22.8333,49.8333 22.1667,63.1667 21.5,76.5C 21.1675,62.8171 21.5008,49.1504 22.5,35.5C 23.1067,35.6236 23.44,35.9569 23.5,36.5 Z" data-index="2"></path></g>
</svg>