<?xml version="1.0" encoding="utf-8"?>
<!-- Generator: Adobe Illustrator 25.0.1, SVG Export Plug-In . SVG Version: 6.00 Build 0)  -->
<svg version="1.1" id="Layer_1" xmlns="http://www.w3.org/2000/svg" xmlns:xlink="http://www.w3.org/1999/xlink" x="0px" y="0px"
	 viewBox="0 0 64 64" style="enable-background:new 0 0 64 64;" xml:space="preserve">
<style type="text/css">
	.st0{fill:#FFFFFF;}
	.st1{fill:none;}
</style>
<g>
	<g>
		<path class="st0" d="M15.78,0c16.59,0,33.19,0,49.78,0c0,21.33,0,42.67,0,64c-2.95,0-5.91,0-8.86,0c0.81-0.47,1.38-1.06,1.37-2.1
			c-0.01-17.27-0.01-34.53-0.01-51.8c0-1.29-0.81-2.09-2.11-2.1c-0.66,0-1.31,0-2.01,0c0-0.56-0.05-1.04,0.01-1.51
			c0.21-1.67-1.1-2.52-2.49-2.51C40.66,4.02,29.85,4,19.04,4c-0.26,0-0.53,0-0.82,0c-0.01-0.24-0.03-0.4-0.03-0.56
			C18.16,1.46,17.61,0.67,15.78,0z"/>
		<path d="M15.78,0c1.83,0.67,2.38,1.46,2.41,3.44c0,0.16,0.02,0.33,0.03,0.56c0.29,0,0.56,0,0.82,0c10.81,0,21.62,0.01,32.43-0.02
			c1.39,0,2.71,0.84,2.49,2.51C53.9,6.96,53.95,7.44,53.95,8c0.7,0,1.36,0,2.01,0c1.29,0.01,2.11,0.81,2.11,2.1
			c0,17.27,0,34.53,0.01,51.8c0,1.04-0.56,1.63-1.37,2.1c-15.1,0-30.2,0-45.29,0c-1.88-0.78-1.46-2.48-1.49-4
			c-0.62,0-1.17-0.04-1.7,0.01c-1.57,0.16-2.44-0.95-2.44-2.42c0.04-16.91,0.04-33.83,0-50.74C5.78,4.82,6.48,3.85,8.68,4
			c1.1,0.07,2.21,0,3.37,0c0-0.31,0-0.54,0-0.76c0-1.58,0.59-2.46,2.05-3.07c0.11-0.05,0.2-0.11,0.31-0.17C14.86,0,15.32,0,15.78,0z
			 M51.94,58.08c0-0.33,0-0.6,0-0.86c0-13.85,0-27.71,0-41.56c0-0.25-0.01-0.5,0.01-0.75c0.06-0.63,0.57-0.99,1.18-0.85
			c0.64,0.15,0.81,0.43,0.81,1.32c0,14.04-0.02,28.08,0.03,42.12c0.01,1.66-1.13,2.51-2.52,2.51C38.57,59.98,25.68,60,12.79,60
			c-0.26,0-0.53,0-0.8,0c0,0.75,0,1.42,0,2.08c14.76,0,29.47,0,44.16,0c0-17.42,0-34.78,0-52.14c-0.75,0-1.45,0-2.19,0
			c0,0.31,0,0.58,0,0.84c-0.01,0.75-0.35,1.1-1.04,1.11c-0.62,0.01-0.96-0.36-0.96-1.11c-0.01-1.35,0-2.71,0-4.06
			c0-0.26,0-0.52,0-0.8c-12.67,0-25.24,0-37.86,0c0,1.07-0.05,2.11,0.02,3.14c0.05,0.79,0.8,1.14,1.52,0.82
			c0.45-0.2,0.65-0.51,0.69-1c0.06-0.57,0.52-0.92,1.03-0.87s0.85,0.47,0.83,1.06c-0.01,0.25-0.04,0.5-0.12,0.73
			c-0.44,1.46-1.81,2.34-3.41,2.04c-1.51-0.28-2.54-1.23-2.59-2.88c-0.03-1.01-0.01-2.02-0.01-3.02c-1.5,0-2.92,0-4.32,0
			c0,17.41,0,34.75,0,52.14C22.46,58.08,37.16,58.08,51.94,58.08z M16.34,3.98c-0.19-0.69,0.26-1.45-0.59-1.89
			c-0.46-0.23-0.87-0.3-1.26,0.03c-0.61,0.5-0.4,1.19-0.41,1.86C14.83,3.98,15.53,3.98,16.34,3.98z"/>
		<path class="st0" d="M14.41,0c-0.1,0.06-0.2,0.12-0.31,0.17c-1.46,0.61-2.05,1.49-2.05,3.07c0,0.23,0,0.45,0,0.76
			C10.9,4,9.78,4.06,8.67,3.99c-2.2-0.15-2.9,0.82-2.89,2.85c0.04,16.91,0.04,33.83,0,50.74c0,1.47,0.87,2.58,2.44,2.42
			c0.53-0.05,1.07,0,1.7,0c0.03,1.52-0.39,3.22,1.49,4c-4.33,0-8.65,0-12.98,0c0-21.33,0-42.67,0-64C3.76,0,9.08,0,14.41,0z"/>
		<path class="st0" d="M51.94,58.08c-14.79,0-29.48,0-44.22,0c0-17.38,0-34.72,0-52.14c1.4,0,2.82,0,4.32,0c0,0.99-0.02,2,0.01,3.02
			c0.05,1.66,1.07,2.6,2.59,2.88c1.6,0.3,2.97-0.58,3.41-2.04c0.07-0.24,0.11-0.49,0.12-0.73c0.02-0.59-0.32-1-0.83-1.06
			c-0.51-0.05-0.97,0.29-1.03,0.87c-0.05,0.49-0.25,0.8-0.69,1c-0.72,0.32-1.47-0.03-1.52-0.82c-0.07-1.03-0.02-2.07-0.02-3.14
			c12.62,0,25.19,0,37.86,0c0,0.27,0,0.53,0,0.8c0,1.35-0.01,2.71,0,4.06c0,0.75,0.34,1.12,0.96,1.11c0.69-0.01,1.03-0.36,1.04-1.11
			c0.01-0.27,0-0.54,0-0.84c0.74,0,1.44,0,2.19,0c0,17.37,0,34.73,0,52.14c-14.69,0-29.4,0-44.16,0c0-0.66,0-1.33,0-2.08
			c0.28,0,0.54,0,0.8,0c12.89,0,25.79-0.01,38.68,0.02c1.39,0,2.53-0.85,2.52-2.51c-0.05-14.04-0.03-28.08-0.03-42.12
			c0-0.89-0.17-1.17-0.81-1.32c-0.61-0.14-1.13,0.22-1.18,0.85c-0.02,0.25-0.01,0.5-0.01,0.75c0,13.85,0,27.71,0,41.56
			C51.94,57.49,51.94,57.75,51.94,58.08z M32.96,18.01c0-1.32,0.01-2.57,0-3.81c-0.01-1.2-0.53-1.96-1.68-2.12
			c-0.96-0.13-1.95-0.05-2.92-0.02c-0.25,0.01-0.51,0.18-0.73,0.33c-0.62,0.43-0.85,1.05-0.84,1.78c0,1.26,0,2.53,0,3.76
			C26.67,17.97,26.63,18,26.6,18c-1.31,0.01-2.62,0-3.93,0.02c-1.27,0.02-2.35,0.84-2.26,2.25c0.04,0.56-0.01,1.13,0.01,1.69
			c0.03,0.67,0.23,1.3,0.92,1.57c0.49,0.19,1.01,0.37,1.53,0.39c1.28,0.06,2.57,0.02,3.82,0.02c0.05,0.11,0.08,0.15,0.08,0.18
			c0.01,1.21,0.01,2.42,0.02,3.62c0.01,1.4,0.81,2.2,2.21,2.22c0.48,0.01,0.96,0,1.43,0c1.81-0.01,2.53-0.73,2.53-2.54
			c0-1.14,0-2.28,0-3.49c0.29,0,0.52,0,0.74,0c1.14,0,2.29,0.02,3.43,0c1.26-0.02,2.05-0.82,2.07-2.08c0.01-0.52,0-1.04,0-1.56
			c-0.01-1.48-0.8-2.26-2.29-2.26C35.64,18.01,34.35,18.01,32.96,18.01z M34,37.98c3.36,0,6.73,0.02,10.09-0.02
			c0.41,0,0.87-0.21,1.23-0.44c0.39-0.25,0.38-0.78-0.02-1.02c-0.39-0.23-0.86-0.42-1.3-0.42c-6.67-0.03-13.33-0.02-20-0.02
			c-0.15,0-0.29-0.01-0.44,0.01c-0.61,0.05-1.03,0.45-1.02,0.97s0.43,0.9,1.05,0.95c0.17,0.01,0.33,0,0.5,0
			C27.39,37.98,30.7,37.98,34,37.98z M34.06,49.99c3.33,0,6.65,0,9.98,0c0.21,0,0.43,0.04,0.62-0.03c0.45-0.17,0.91-0.36,0.91-0.95
			c0-0.43-0.49-0.85-1.03-0.9c-0.14-0.01-0.29-0.01-0.44-0.01c-6.74,0-13.47,0-20.21,0c-0.17,0-0.33,0-0.5,0.01
			c-0.49,0.04-0.76,0.35-0.83,0.8c-0.07,0.46,0.15,0.82,0.59,0.98c0.23,0.08,0.49,0.09,0.73,0.09
			C27.28,49.99,30.67,49.99,34.06,49.99z M34,43.98c3.39,0,6.78,0.01,10.17-0.01c0.31,0,0.67-0.08,0.93-0.25
			c0.66-0.42,0.67-0.98,0-1.39c-0.31-0.19-0.74-0.25-1.12-0.25c-6.65-0.01-13.31-0.01-19.96-0.01c-0.23,0-0.46,0-0.68,0.04
			c-0.48,0.07-0.8,0.42-0.75,0.84c0.03,0.33,0.33,0.67,0.59,0.92c0.15,0.14,0.47,0.11,0.72,0.11C27.26,43.98,30.63,43.98,34,43.98z
			 M16.71,37.97c0.5,0,1,0.02,1.5,0c0.71-0.03,1.08-0.37,1.09-0.94c0.01-0.58-0.34-0.94-1.06-0.96c-1.02-0.03-2.04-0.03-3.05,0
			c-0.62,0.01-1.02,0.43-1.02,0.96c0.01,0.53,0.42,0.92,1.04,0.95C15.71,37.99,16.21,37.97,16.71,37.97z M16.76,48.12L16.76,48.12
			c-0.56-0.01-1.12-0.02-1.68-0.01c-0.54,0.02-0.83,0.35-0.9,0.86c-0.06,0.47,0.32,0.98,0.83,0.99C16.17,50,17.34,50,18.5,49.95
			c0.51-0.02,0.81-0.41,0.79-0.94c-0.02-0.53-0.3-0.86-0.85-0.88C17.89,48.1,17.32,48.12,16.76,48.12z M16.71,43.98
			c0.48,0,0.96,0,1.43,0c0.04,0,0.08,0,0.12,0c0.65-0.05,1.02-0.39,1.03-0.93c0.01-0.57-0.32-0.92-0.99-0.95
			c-1.04-0.03-2.08-0.03-3.11-0.01c-0.62,0.01-1.03,0.42-1.02,0.95c0.01,0.53,0.42,0.92,1.04,0.94C15.71,44,16.21,43.98,16.71,43.98
			z"/>
		<path class="st0" d="M16.34,3.98c-0.82,0-1.51,0-2.27,0c0.01-0.67-0.19-1.35,0.41-1.86c0.39-0.33,0.81-0.27,1.26-0.03
			C16.6,2.53,16.15,3.29,16.34,3.98z"/>
		<path d="M32.96,18.01c1.39,0,2.68,0,3.96,0c1.49,0.01,2.28,0.79,2.29,2.26c0,0.52,0.01,1.04,0,1.56
			c-0.03,1.26-0.81,2.06-2.07,2.08c-1.14,0.02-2.29,0-3.43,0c-0.22,0-0.45,0-0.74,0c0,1.21,0,2.35,0,3.49
			c0,1.81-0.72,2.53-2.53,2.54c-0.48,0-0.96,0.01-1.43,0c-1.4-0.02-2.2-0.82-2.21-2.22c-0.01-1.21-0.01-2.42-0.02-3.62
			c0-0.04-0.03-0.07-0.08-0.18c-1.25,0-2.54,0.04-3.82-0.02c-0.52-0.02-1.04-0.2-1.53-0.39c-0.69-0.27-0.89-0.89-0.92-1.57
			c-0.03-0.56,0.02-1.13-0.01-1.69c-0.09-1.41,0.99-2.23,2.26-2.25c1.3,0,2.61,0.01,3.92,0c0.04,0,0.07-0.03,0.19-0.07
			c0-1.23,0-2.5,0-3.76c0-0.73,0.23-1.36,0.84-1.78c0.22-0.15,0.48-0.32,0.73-0.33c0.97-0.04,1.96-0.12,2.92,0.02
			c1.15,0.16,1.67,0.92,1.68,2.12C32.97,15.44,32.96,16.69,32.96,18.01z M30.91,28c0-1.61,0-3.15,0-4.69c0-0.95,0.33-1.29,1.27-1.29
			c1.43-0.01,2.87,0,4.3,0c0.22,0,0.44-0.02,0.65-0.03c0-0.72,0-1.36,0-2.08c-0.26,0-0.48,0-0.7,0c-1.18,0-2.37,0-3.55,0
			c-1.9,0-1.96-0.06-1.96-1.95c0-1.33,0-2.65,0-4.01c-0.76,0-1.45,0-2.2,0c0,0.27,0,0.5,0,0.72c0,1.33,0.01,2.66,0,4
			c-0.01,0.93-0.31,1.24-1.23,1.24c-1.35,0.01-2.7,0-4.05,0c-0.3,0-0.61,0-0.93,0c0,0.75,0,1.4,0,2.11c1.7,0,3.36-0.01,5.02,0
			c0.82,0,1.18,0.35,1.2,1.18c0.02,1.14,0,2.29,0,3.43c0,0.45,0,0.9,0,1.37C29.48,28,30.15,28,30.91,28z"/>
		<path d="M34,37.98c-3.3,0-6.6,0-9.91,0c-0.17,0-0.33,0.01-0.5,0c-0.61-0.04-1.03-0.43-1.05-0.95c-0.01-0.52,0.41-0.92,1.02-0.97
			c0.14-0.01,0.29-0.01,0.44-0.01c6.67,0,13.33-0.01,20,0.02c0.44,0,0.91,0.2,1.3,0.42c0.4,0.24,0.41,0.77,0.02,1.02
			c-0.36,0.23-0.81,0.44-1.23,0.44C40.73,37.99,37.36,37.98,34,37.98z"/>
		<path d="M34.06,49.99c-3.39,0-6.78,0-10.17,0c-0.25,0-0.51-0.01-0.73-0.09c-0.44-0.16-0.66-0.52-0.59-0.98
			c0.07-0.45,0.34-0.76,0.83-0.8c0.17-0.01,0.33-0.01,0.5-0.01c6.74,0,13.47,0,20.21,0c0.15,0,0.29,0,0.44,0.01
			c0.54,0.05,1.03,0.46,1.03,0.9c0,0.6-0.47,0.79-0.91,0.95C44.49,50.04,44.26,50,44.05,50C40.71,49.99,37.39,49.99,34.06,49.99z"/>
		<path d="M34,43.98c-3.37,0-6.74,0-10.11,0c-0.24,0-0.57,0.03-0.72-0.11c-0.26-0.24-0.56-0.59-0.59-0.92
			c-0.05-0.43,0.27-0.77,0.75-0.84c0.22-0.03,0.46-0.04,0.68-0.04c6.65,0,13.31-0.01,19.96,0.01c0.38,0,0.81,0.06,1.12,0.25
			c0.67,0.41,0.66,0.97,0,1.39c-0.26,0.17-0.62,0.25-0.93,0.25C40.78,43.99,37.39,43.98,34,43.98z"/>
		<path d="M16.71,37.97c-0.5,0-1,0.02-1.5,0c-0.62-0.03-1.03-0.42-1.04-0.95c-0.01-0.53,0.4-0.94,1.02-0.96
			c1.02-0.02,2.04-0.03,3.05,0c0.72,0.02,1.07,0.38,1.06,0.96c-0.01,0.57-0.39,0.9-1.09,0.94C17.71,37.99,17.21,37.97,16.71,37.97z"
			/>
		<path d="M16.76,48.12c0.56,0,1.12-0.02,1.68,0c0.55,0.02,0.83,0.36,0.85,0.88c0.02,0.54-0.28,0.92-0.79,0.94
			c-1.16,0.05-2.33,0.05-3.49,0.01c-0.51-0.02-0.9-0.52-0.83-0.99c0.07-0.51,0.36-0.84,0.9-0.86c0.56-0.02,1.12,0,1.68,0
			C16.76,48.11,16.76,48.12,16.76,48.12z"/>
		<path d="M16.71,43.98c-0.5,0-1,0.01-1.5,0c-0.62-0.02-1.03-0.41-1.04-0.94s0.39-0.94,1.02-0.95c1.04-0.02,2.08-0.02,3.11,0.01
			c0.67,0.02,1.01,0.38,0.99,0.95c-0.01,0.55-0.39,0.89-1.03,0.93c-0.04,0-0.08,0-0.12,0C17.66,43.98,17.19,43.98,16.71,43.98z"/>
		<path class="st0" d="M30.91,28c-0.76,0-1.44,0-2.2,0c0-0.47,0-0.92,0-1.37c0-1.14,0.01-2.29,0-3.43c-0.01-0.82-0.37-1.17-1.2-1.18
			c-1.66-0.01-3.32,0-5.02,0c0-0.7,0-1.36,0-2.11c0.33,0,0.63,0,0.93,0c1.35,0,2.7,0.01,4.05,0c0.92,0,1.23-0.31,1.23-1.24
			c0.01-1.33,0-2.66,0-4c0-0.23,0-0.45,0-0.72c0.75,0,1.44,0,2.2,0c0,1.36,0,2.68,0,4.01c0,1.89,0.06,1.95,1.96,1.95
			c1.18,0,2.37,0,3.55,0c0.22,0,0.45,0,0.7,0c0,0.72,0,1.36,0,2.08c-0.21,0.01-0.43,0.03-0.65,0.03c-1.43,0-2.87,0-4.3,0
			c-0.94,0-1.27,0.34-1.27,1.29C30.91,24.85,30.91,26.39,30.91,28z"/>
	</g>
</g>
<rect x="-1.56" class="st1" width="67.13" height="64"/>
</svg>
