<svg xmlns="http://www.w3.org/2000/svg" xmlns:xlink="http://www.w3.org/1999/xlink" version="1.1" width="1080" height="1080" viewBox="0 0 1080 1080" xml:space="preserve">
<desc fill="#00684a">Created with Fabric.js 5.2.4</desc>
<defs fill="#00684a">
</defs>
<g transform="matrix(1 0 0 1 540 540)" id="e33e5e54-5bfa-4008-92d4-5d08d4818143">
<rect style="stroke: none; stroke-width: 1; stroke-dasharray: none; stroke-linecap: butt; stroke-dashoffset: 0; stroke-linejoin: miter; stroke-miterlimit: 4; fill: rgb(255,255,255); fill-rule: nonzero; opacity: 1; visibility: hidden;" vector-effect="non-scaling-stroke" x="-540" y="-540" rx="0" ry="0" width="1080" height="1080"/>
</g>
<g transform="matrix(1 0 0 1 540 540)" id="8cb8d21f-1e8a-4f58-a293-3a6c4ade28cc">
</g>
<g transform="matrix(16.88 0 0 16.88 540 540)">
<g style="">
		<g transform="matrix(1 0 0 1 8.67 0)" id="Layer_1">
<path style="stroke: none; stroke-width: 1; stroke-dasharray: none; stroke-linecap: butt; stroke-dashoffset: 0; stroke-linejoin: miter; stroke-miterlimit: 4; fill: rgb(255,255,255); fill-rule: nonzero; opacity: 1;" vector-effect="non-scaling-stroke" transform=" translate(-40.67, -32)" d="M 15.78 0 C 32.37 0 48.97 0 65.56 0 C 65.56 21.33 65.56 42.67 65.56 64 C 62.61 64 59.650000000000006 64 56.7 64 C 57.510000000000005 63.53 58.080000000000005 62.94 58.07 61.9 C 58.06 44.629999999999995 58.06 27.369999999999997 58.06 10.100000000000001 C 58.06 8.810000000000002 57.25 8.010000000000002 55.95 8.000000000000002 C 55.290000000000006 8.000000000000002 54.64 8.000000000000002 53.940000000000005 8.000000000000002 C 53.940000000000005 7.440000000000001 53.89000000000001 6.960000000000002 53.95 6.490000000000002 C 54.160000000000004 4.820000000000002 52.85 3.970000000000002 51.46 3.980000000000002 C 40.66 4.02 29.85 4 19.04 4 C 18.779999999999998 4 18.509999999999998 4 18.22 4 C 18.209999999999997 3.76 18.189999999999998 3.6 18.189999999999998 3.44 C 18.16 1.46 17.61 0.67 15.78 0 z" stroke-linecap="round"/>
</g>
		<g transform="matrix(1 0 0 1 -0.07 0)" id="Layer_1">
<path style="stroke: none; stroke-width: 1; stroke-dasharray: none; stroke-linecap: butt; stroke-dashoffset: 0; stroke-linejoin: miter; stroke-miterlimit: 4; fill:#00684a; fill-rule: nonzero; opacity: 1;" vector-effect="non-scaling-stroke" transform=" translate(-31.93, -32)" d="M 15.78 0 C 17.61 0.67 18.16 1.46 18.189999999999998 3.44 C 18.189999999999998 3.6 18.209999999999997 3.77 18.22 4 C 18.509999999999998 4 18.779999999999998 4 19.04 4 C 29.85 4 40.66 4.01 51.47 3.98 C 52.86 3.98 54.18 4.82 53.96 6.49 C 53.9 6.96 53.95 7.44 53.95 8 C 54.650000000000006 8 55.31 8 55.96 8 C 57.25 8.01 58.07 8.81 58.07 10.1 C 58.07 27.369999999999997 58.07 44.63 58.08 61.9 C 58.08 62.94 57.519999999999996 63.53 56.71 64 C 41.61 64 26.51 64 11.420000000000002 64 C 9.540000000000003 63.22 9.96 61.52 9.930000000000001 60 C 9.310000000000002 60 8.760000000000002 59.96 8.230000000000002 60.01 C 6.660000000000002 60.169999999999995 5.790000000000003 59.059999999999995 5.790000000000003 57.589999999999996 C 5.830000000000003 40.67999999999999 5.830000000000003 23.759999999999998 5.790000000000003 6.849999999999994 C 5.78 4.82 6.48 3.85 8.68 4 C 9.78 4.07 10.89 4 12.05 4 C 12.05 3.69 12.05 3.46 12.05 3.24 C 12.05 1.6600000000000001 12.64 0.7800000000000002 14.100000000000001 0.17000000000000037 C 14.21 0.12000000000000037 14.3 0.06000000000000037 14.410000000000002 3.608224830031759e-16 C 14.86 0 15.32 0 15.78 0 z M 51.94 58.08 C 51.94 57.75 51.94 57.48 51.94 57.22 C 51.94 43.37 51.94 29.509999999999998 51.94 15.659999999999997 C 51.94 15.409999999999997 51.93 15.159999999999997 51.949999999999996 14.909999999999997 C 52.01 14.279999999999996 52.519999999999996 13.919999999999996 53.129999999999995 14.059999999999997 C 53.769999999999996 14.209999999999997 53.94 14.489999999999997 53.94 15.379999999999997 C 53.94 29.419999999999995 53.919999999999995 43.459999999999994 53.97 57.49999999999999 C 53.98 59.15999999999999 52.839999999999996 60.00999999999999 51.449999999999996 60.00999999999999 C 38.57 59.98 25.68 60 12.79 60 C 12.53 60 12.26 60 11.989999999999998 60 C 11.989999999999998 60.75 11.989999999999998 61.42 11.989999999999998 62.08 C 26.75 62.08 41.459999999999994 62.08 56.14999999999999 62.08 C 56.14999999999999 44.66 56.14999999999999 27.299999999999997 56.14999999999999 9.939999999999998 C 55.39999999999999 9.939999999999998 54.69999999999999 9.939999999999998 53.959999999999994 9.939999999999998 C 53.959999999999994 10.249999999999998 53.959999999999994 10.519999999999998 53.959999999999994 10.779999999999998 C 53.949999999999996 11.529999999999998 53.60999999999999 11.879999999999997 52.919999999999995 11.889999999999997 C 52.3 11.899999999999997 51.959999999999994 11.529999999999998 51.959999999999994 10.779999999999998 C 51.949999999999996 9.429999999999998 51.959999999999994 8.069999999999997 51.959999999999994 6.719999999999998 C 51.959999999999994 6.459999999999998 51.959999999999994 6.1999999999999975 51.959999999999994 5.919999999999998 C 39.28999999999999 5.919999999999998 26.719999999999995 5.919999999999998 14.099999999999994 5.919999999999998 C 14.099999999999994 6.989999999999998 14.049999999999994 8.029999999999998 14.119999999999994 9.059999999999999 C 14.169999999999995 9.849999999999998 14.919999999999995 10.2 15.639999999999993 9.879999999999999 C 16.089999999999993 9.68 16.289999999999992 9.37 16.329999999999995 8.879999999999999 C 16.389999999999993 8.309999999999999 16.849999999999994 7.959999999999999 17.359999999999996 8.01 C 17.869999999999997 8.06 18.209999999999997 8.48 18.189999999999994 9.07 C 18.179999999999993 9.32 18.149999999999995 9.57 18.069999999999993 9.8 C 17.629999999999992 11.260000000000002 16.259999999999994 12.14 14.659999999999993 11.84 C 13.149999999999993 11.56 12.119999999999994 10.61 12.069999999999993 8.96 C 12.039999999999994 7.950000000000001 12.059999999999993 6.940000000000001 12.059999999999993 5.940000000000001 C 10.559999999999993 5.940000000000001 9.139999999999993 5.940000000000001 7.739999999999993 5.940000000000001 C 7.739999999999993 23.35 7.739999999999993 40.69 7.739999999999993 58.08 C 22.46 58.08 37.16 58.08 51.94 58.08 z M 16.34 3.98 C 16.15 3.29 16.6 2.5300000000000002 15.75 2.09 C 15.29 1.8599999999999999 14.88 1.7899999999999998 14.49 2.1199999999999997 C 13.88 2.6199999999999997 14.09 3.3099999999999996 14.08 3.9799999999999995 C 14.83 3.98 15.53 3.98 16.34 3.98 z" stroke-linecap="round"/>
</g>
		<g transform="matrix(1 0 0 1 -25.58 0)" id="Layer_1">
<path style="stroke: none; stroke-width: 1; stroke-dasharray: none; stroke-linecap: butt; stroke-dashoffset: 0; stroke-linejoin: miter; stroke-miterlimit: 4; fill: rgb(255,255,255); fill-rule: nonzero; opacity: 1;" vector-effect="non-scaling-stroke" transform=" translate(-6.42, -32)" d="M 14.41 0 C 14.31 0.06 14.21 0.12 14.1 0.17 C 12.64 0.78 12.05 1.66 12.05 3.2399999999999998 C 12.05 3.4699999999999998 12.05 3.69 12.05 4 C 10.9 4 9.78 4.06 8.67 3.99 C 6.47 3.8400000000000003 5.77 4.8100000000000005 5.779999999999999 6.84 C 5.819999999999999 23.75 5.819999999999999 40.67 5.779999999999999 57.58 C 5.779999999999999 59.05 6.6499999999999995 60.16 8.219999999999999 60 C 8.749999999999998 59.95 9.29 60 9.919999999999998 60 C 9.949999999999998 61.52 9.529999999999998 63.22 11.409999999999998 64 C 7.079999999999998 64 2.759999999999998 64 -1.570000000000002 64 C -1.570000000000002 42.67 -1.570000000000002 21.33 -1.570000000000002 0 C 3.76 0 9.08 0 14.41 0 z" stroke-linecap="round"/>
</g>
		<g transform="matrix(1 0 0 1 -0.08 2)" id="Layer_1">
<path style="stroke: none; stroke-width: 1; stroke-dasharray: none; stroke-linecap: butt; stroke-dashoffset: 0; stroke-linejoin: miter; stroke-miterlimit: 4; fill: rgb(255,255,255); fill-rule: nonzero; opacity: 1;" vector-effect="non-scaling-stroke" transform=" translate(-31.92, -34)" d="M 51.94 58.08 C 37.15 58.08 22.459999999999997 58.08 7.719999999999999 58.08 C 7.719999999999999 40.7 7.719999999999999 23.36 7.719999999999999 5.939999999999998 C 9.12 5.939999999999998 10.54 5.939999999999998 12.04 5.939999999999998 C 12.04 6.929999999999998 12.02 7.939999999999998 12.049999999999999 8.959999999999997 C 12.1 10.619999999999997 13.12 11.559999999999997 14.639999999999999 11.839999999999996 C 16.24 12.139999999999997 17.61 11.259999999999996 18.049999999999997 9.799999999999997 C 18.119999999999997 9.559999999999997 18.159999999999997 9.309999999999997 18.169999999999998 9.069999999999997 C 18.189999999999998 8.479999999999997 17.849999999999998 8.069999999999997 17.34 8.009999999999996 C 16.83 7.959999999999996 16.37 8.299999999999995 16.31 8.879999999999995 C 16.259999999999998 9.369999999999996 16.06 9.679999999999996 15.62 9.879999999999995 C 14.899999999999999 10.199999999999996 14.149999999999999 9.849999999999996 14.1 9.059999999999995 C 14.03 8.029999999999996 14.08 6.989999999999995 14.08 5.919999999999995 C 26.7 5.919999999999995 39.27 5.919999999999995 51.94 5.919999999999995 C 51.94 6.189999999999994 51.94 6.449999999999995 51.94 6.719999999999994 C 51.94 8.069999999999995 51.93 9.429999999999994 51.94 10.779999999999994 C 51.94 11.529999999999994 52.28 11.899999999999995 52.9 11.889999999999993 C 53.589999999999996 11.879999999999994 53.93 11.529999999999994 53.94 10.779999999999994 C 53.949999999999996 10.509999999999994 53.94 10.239999999999995 53.94 9.939999999999994 C 54.68 9.939999999999994 55.379999999999995 9.939999999999994 56.129999999999995 9.939999999999994 C 56.129999999999995 27.309999999999995 56.129999999999995 44.66999999999999 56.129999999999995 62.08 C 41.44 62.08 26.729999999999997 62.08 11.969999999999999 62.08 C 11.969999999999999 61.42 11.969999999999999 60.75 11.969999999999999 60 C 12.249999999999998 60 12.509999999999998 60 12.77 60 C 25.66 60 38.56 59.99 51.45 60.02 C 52.84 60.02 53.980000000000004 59.17 53.970000000000006 57.510000000000005 C 53.92000000000001 43.470000000000006 53.940000000000005 29.430000000000007 53.940000000000005 15.390000000000008 C 53.940000000000005 14.500000000000007 53.77 14.220000000000008 53.13 14.070000000000007 C 52.52 13.930000000000007 52 14.290000000000008 51.95 14.920000000000007 C 51.93 15.170000000000007 51.940000000000005 15.420000000000007 51.940000000000005 15.670000000000007 C 51.940000000000005 29.520000000000007 51.940000000000005 43.38000000000001 51.940000000000005 57.23000000000001 C 51.94 57.49 51.94 57.75 51.94 58.08 z M 32.96 18.01 C 32.96 16.69 32.97 15.440000000000001 32.96 14.200000000000001 C 32.95 13.000000000000002 32.43 12.240000000000002 31.28 12.080000000000002 C 30.32 11.950000000000001 29.330000000000002 12.030000000000001 28.36 12.060000000000002 C 28.11 12.070000000000002 27.849999999999998 12.240000000000002 27.63 12.390000000000002 C 27.009999999999998 12.820000000000002 26.779999999999998 13.440000000000003 26.79 14.170000000000002 C 26.79 15.430000000000001 26.79 16.700000000000003 26.79 17.93 C 26.67 17.97 26.63 18 26.6 18 C 25.290000000000003 18.01 23.98 18 22.67 18.02 C 21.400000000000002 18.04 20.32 18.86 20.410000000000004 20.27 C 20.450000000000003 20.83 20.400000000000002 21.4 20.420000000000005 21.96 C 20.450000000000006 22.630000000000003 20.650000000000006 23.26 21.340000000000007 23.53 C 21.830000000000005 23.720000000000002 22.35000000000001 23.900000000000002 22.870000000000008 23.92 C 24.15000000000001 23.98 25.44000000000001 23.94 26.69000000000001 23.94 C 26.74000000000001 24.05 26.770000000000007 24.09 26.770000000000007 24.12 C 26.78000000000001 25.330000000000002 26.78000000000001 26.54 26.790000000000006 27.740000000000002 C 26.800000000000008 29.14 27.600000000000005 29.94 29.000000000000007 29.96 C 29.480000000000008 29.970000000000002 29.960000000000008 29.96 30.430000000000007 29.96 C 32.24000000000001 29.95 32.96000000000001 29.23 32.96000000000001 27.42 C 32.96000000000001 26.28 32.96000000000001 25.14 32.96000000000001 23.93 C 33.25000000000001 23.93 33.48000000000001 23.93 33.70000000000001 23.93 C 34.84000000000001 23.93 35.99000000000001 23.95 37.13000000000001 23.93 C 38.39000000000001 23.91 39.18000000000001 23.11 39.20000000000001 21.85 C 39.21000000000001 21.330000000000002 39.20000000000001 20.810000000000002 39.20000000000001 20.290000000000003 C 39.19000000000001 18.810000000000002 38.40000000000001 18.03 36.91000000000001 18.03 C 35.64 18.01 34.35 18.01 32.96 18.01 z M 34 37.98 C 37.36 37.98 40.730000000000004 38 44.09 37.959999999999994 C 44.5 37.959999999999994 44.96 37.74999999999999 45.32 37.519999999999996 C 45.71 37.269999999999996 45.7 36.739999999999995 45.3 36.49999999999999 C 44.91 36.269999999999996 44.44 36.07999999999999 44 36.07999999999999 C 37.33 36.04999999999999 30.67 36.05999999999999 24 36.05999999999999 C 23.85 36.05999999999999 23.71 36.04999999999999 23.56 36.069999999999986 C 22.95 36.11999999999998 22.529999999999998 36.51999999999999 22.54 37.039999999999985 C 22.55 37.55999999999998 22.97 37.93999999999998 23.59 37.98999999999999 C 23.76 37.999999999999986 23.919999999999998 37.98999999999999 24.09 37.98999999999999 C 27.39 37.98 30.7 37.98 34 37.98 z M 34.06 49.99 C 37.39 49.99 40.71 49.99 44.040000000000006 49.99 C 44.25000000000001 49.99 44.470000000000006 50.03 44.660000000000004 49.96 C 45.11000000000001 49.79 45.57 49.6 45.57 49.01 C 45.57 48.58 45.08 48.16 44.54 48.11 C 44.4 48.1 44.25 48.1 44.1 48.1 C 37.36 48.1 30.630000000000003 48.1 23.89 48.1 C 23.72 48.1 23.560000000000002 48.1 23.39 48.11 C 22.900000000000002 48.15 22.63 48.46 22.560000000000002 48.91 C 22.490000000000002 49.37 22.71 49.73 23.150000000000002 49.88999999999999 C 23.380000000000003 49.96999999999999 23.64 49.98 23.880000000000003 49.98 C 27.28 49.99 30.67 49.99 34.06 49.99 z M 34 43.98 C 37.39 43.98 40.78 43.989999999999995 44.17 43.97 C 44.480000000000004 43.97 44.84 43.89 45.1 43.72 C 45.76 43.3 45.77 42.74 45.1 42.33 C 44.79 42.14 44.36 42.08 43.980000000000004 42.08 C 37.330000000000005 42.07 30.67 42.07 24.020000000000003 42.07 C 23.790000000000003 42.07 23.560000000000002 42.07 23.340000000000003 42.11 C 22.860000000000003 42.18 22.540000000000003 42.53 22.590000000000003 42.95 C 22.620000000000005 43.28 22.92 43.620000000000005 23.180000000000003 43.870000000000005 C 23.330000000000002 44.010000000000005 23.650000000000002 43.980000000000004 23.900000000000002 43.980000000000004 C 27.26 43.98 30.63 43.98 34 43.98 z M 16.71 37.97 C 17.21 37.97 17.71 37.99 18.21 37.97 C 18.92 37.94 19.29 37.6 19.3 37.03 C 19.310000000000002 36.45 18.96 36.09 18.240000000000002 36.07 C 17.220000000000002 36.04 16.200000000000003 36.04 15.190000000000001 36.07 C 14.570000000000002 36.08 14.170000000000002 36.5 14.170000000000002 37.03 C 14.180000000000001 37.56 14.590000000000002 37.95 15.21 37.980000000000004 C 15.71 37.99 16.21 37.97 16.71 37.97 z M 16.76 48.12 L 16.76 48.12 C 16.200000000000003 48.11 15.64 48.099999999999994 15.080000000000002 48.11 C 14.540000000000003 48.13 14.250000000000002 48.46 14.180000000000001 48.97 C 14.120000000000001 49.44 14.500000000000002 49.949999999999996 15.010000000000002 49.96 C 16.17 50 17.34 50 18.5 49.95 C 19.01 49.93 19.31 49.540000000000006 19.29 49.010000000000005 C 19.27 48.480000000000004 18.99 48.150000000000006 18.439999999999998 48.13 C 17.89 48.1 17.32 48.12 16.76 48.12 z M 16.71 43.98 C 17.19 43.98 17.67 43.98 18.14 43.98 C 18.18 43.98 18.22 43.98 18.26 43.98 C 18.91 43.93 19.28 43.589999999999996 19.290000000000003 43.05 C 19.300000000000004 42.48 18.970000000000002 42.129999999999995 18.300000000000004 42.099999999999994 C 17.260000000000005 42.06999999999999 16.220000000000006 42.06999999999999 15.190000000000005 42.089999999999996 C 14.570000000000006 42.099999999999994 14.160000000000005 42.51 14.170000000000005 43.04 C 14.180000000000005 43.57 14.590000000000005 43.96 15.210000000000004 43.98 C 15.71 44 16.21 43.98 16.71 43.98 z" stroke-linecap="round"/>
</g>
		<g transform="matrix(1 0 0 1 -16.81 -29.06)" id="Layer_1">
<path style="stroke: none; stroke-width: 1; stroke-dasharray: none; stroke-linecap: butt; stroke-dashoffset: 0; stroke-linejoin: miter; stroke-miterlimit: 4; fill: rgb(255,255,255); fill-rule: nonzero; opacity: 1;" vector-effect="non-scaling-stroke" transform=" translate(-15.19, -2.94)" d="M 16.34 3.98 C 15.52 3.98 14.83 3.98 14.07 3.98 C 14.08 3.31 13.88 2.63 14.48 2.12 C 14.870000000000001 1.79 15.290000000000001 1.85 15.74 2.0900000000000003 C 16.6 2.53 16.15 3.29 16.34 3.98 z" stroke-linecap="round"/>
</g>
		<g transform="matrix(1 0 0 1 -2.19 -11.03)" id="Layer_1">
<path style="stroke: none; stroke-width: 1; stroke-dasharray: none; stroke-linecap: butt; stroke-dashoffset: 0; stroke-linejoin: miter; stroke-miterlimit: 4; fill:#00684a; fill-rule: nonzero; opacity: 1;" vector-effect="non-scaling-stroke" transform=" translate(-29.81, -20.97)" d="M 32.96 18.01 C 34.35 18.01 35.64 18.01 36.92 18.01 C 38.410000000000004 18.020000000000003 39.2 18.8 39.21 20.270000000000003 C 39.21 20.790000000000003 39.22 21.310000000000002 39.21 21.830000000000002 C 39.18 23.090000000000003 38.4 23.89 37.14 23.910000000000004 C 36 23.930000000000003 34.85 23.910000000000004 33.71 23.910000000000004 C 33.49 23.910000000000004 33.26 23.910000000000004 32.97 23.910000000000004 C 32.97 25.120000000000005 32.97 26.260000000000005 32.97 27.400000000000006 C 32.97 29.210000000000004 32.25 29.930000000000007 30.439999999999998 29.940000000000005 C 29.959999999999997 29.940000000000005 29.479999999999997 29.950000000000006 29.009999999999998 29.940000000000005 C 27.61 29.920000000000005 26.81 29.120000000000005 26.799999999999997 27.720000000000006 C 26.789999999999996 26.510000000000005 26.789999999999996 25.300000000000004 26.779999999999998 24.100000000000005 C 26.779999999999998 24.060000000000006 26.749999999999996 24.030000000000005 26.7 23.920000000000005 C 25.45 23.920000000000005 24.16 23.960000000000004 22.88 23.900000000000006 C 22.36 23.880000000000006 21.84 23.700000000000006 21.349999999999998 23.510000000000005 C 20.659999999999997 23.240000000000006 20.459999999999997 22.620000000000005 20.429999999999996 21.940000000000005 C 20.399999999999995 21.380000000000006 20.449999999999996 20.810000000000006 20.419999999999995 20.250000000000004 C 20.329999999999995 18.840000000000003 21.409999999999993 18.020000000000003 22.679999999999993 18.000000000000004 C 23.979999999999993 18.000000000000004 25.289999999999992 18.010000000000005 26.599999999999994 18.000000000000004 C 26.639999999999993 18.000000000000004 26.669999999999995 17.970000000000002 26.789999999999996 17.930000000000003 C 26.789999999999996 16.700000000000003 26.789999999999996 15.430000000000003 26.789999999999996 14.170000000000003 C 26.789999999999996 13.440000000000003 27.019999999999996 12.810000000000004 27.629999999999995 12.390000000000004 C 27.849999999999994 12.240000000000004 28.109999999999996 12.070000000000004 28.359999999999996 12.060000000000004 C 29.329999999999995 12.020000000000005 30.319999999999997 11.940000000000005 31.279999999999994 12.080000000000004 C 32.42999999999999 12.240000000000004 32.949999999999996 13.000000000000004 32.959999999999994 14.200000000000003 C 32.97 15.44 32.96 16.69 32.96 18.01 z M 30.91 28 C 30.91 26.39 30.91 24.85 30.91 23.31 C 30.91 22.36 31.24 22.02 32.18 22.02 C 33.61 22.009999999999998 35.05 22.02 36.48 22.02 C 36.699999999999996 22.02 36.919999999999995 22 37.129999999999995 21.99 C 37.129999999999995 21.27 37.129999999999995 20.63 37.129999999999995 19.909999999999997 C 36.87 19.909999999999997 36.65 19.909999999999997 36.42999999999999 19.909999999999997 C 35.24999999999999 19.909999999999997 34.059999999999995 19.909999999999997 32.879999999999995 19.909999999999997 C 30.979999999999997 19.909999999999997 30.919999999999995 19.849999999999998 30.919999999999995 17.959999999999997 C 30.919999999999995 16.629999999999995 30.919999999999995 15.309999999999997 30.919999999999995 13.949999999999998 C 30.159999999999993 13.949999999999998 29.469999999999995 13.949999999999998 28.719999999999995 13.949999999999998 C 28.719999999999995 14.219999999999997 28.719999999999995 14.449999999999998 28.719999999999995 14.669999999999998 C 28.719999999999995 15.999999999999998 28.729999999999997 17.33 28.719999999999995 18.669999999999998 C 28.709999999999994 19.599999999999998 28.409999999999997 19.909999999999997 27.489999999999995 19.909999999999997 C 26.139999999999993 19.919999999999998 24.789999999999996 19.909999999999997 23.439999999999994 19.909999999999997 C 23.139999999999993 19.909999999999997 22.829999999999995 19.909999999999997 22.509999999999994 19.909999999999997 C 22.509999999999994 20.659999999999997 22.509999999999994 21.309999999999995 22.509999999999994 22.019999999999996 C 24.209999999999994 22.019999999999996 25.869999999999994 22.009999999999994 27.529999999999994 22.019999999999996 C 28.349999999999994 22.019999999999996 28.709999999999994 22.369999999999997 28.729999999999993 23.199999999999996 C 28.749999999999993 24.339999999999996 28.729999999999993 25.489999999999995 28.729999999999993 26.629999999999995 C 28.729999999999993 27.079999999999995 28.729999999999993 27.529999999999994 28.729999999999993 27.999999999999996 C 29.48 28 30.15 28 30.91 28 z" stroke-linecap="round"/>
</g>
		<g transform="matrix(1 0 0 1 2.07 5.02)" id="Layer_1">
<path style="stroke: none; stroke-width: 1; stroke-dasharray: none; stroke-linecap: butt; stroke-dashoffset: 0; stroke-linejoin: miter; stroke-miterlimit: 4; fill:#00684a; fill-rule: nonzero; opacity: 1;" vector-effect="non-scaling-stroke" transform=" translate(-34.07, -37.02)" d="M 34 37.98 C 30.7 37.98 27.4 37.98 24.09 37.98 C 23.919999999999998 37.98 23.76 37.989999999999995 23.59 37.98 C 22.98 37.94 22.56 37.55 22.54 37.029999999999994 C 22.529999999999998 36.50999999999999 22.95 36.10999999999999 23.56 36.059999999999995 C 23.7 36.05 23.849999999999998 36.05 24 36.05 C 30.67 36.05 37.33 36.04 44 36.07 C 44.44 36.07 44.91 36.27 45.3 36.49 C 45.699999999999996 36.730000000000004 45.709999999999994 37.260000000000005 45.32 37.510000000000005 C 44.96 37.74 44.51 37.95 44.09 37.95 C 40.73 37.99 37.36 37.98 34 37.98 z" stroke-linecap="round"/>
</g>
		<g transform="matrix(1 0 0 1 2.07 17.06)" id="Layer_1">
<path style="stroke: none; stroke-width: 1; stroke-dasharray: none; stroke-linecap: butt; stroke-dashoffset: 0; stroke-linejoin: miter; stroke-miterlimit: 4; fill:#00684a; fill-rule: nonzero; opacity: 1;" vector-effect="non-scaling-stroke" transform=" translate(-34.07, -49.06)" d="M 34.06 49.99 C 30.67 49.99 27.28 49.99 23.89 49.99 C 23.64 49.99 23.38 49.980000000000004 23.16 49.9 C 22.72 49.74 22.5 49.379999999999995 22.57 48.92 C 22.64 48.47 22.91 48.160000000000004 23.4 48.120000000000005 C 23.57 48.11000000000001 23.729999999999997 48.11000000000001 23.9 48.11000000000001 C 30.64 48.11000000000001 37.37 48.11000000000001 44.11 48.11000000000001 C 44.26 48.11000000000001 44.4 48.11000000000001 44.55 48.120000000000005 C 45.089999999999996 48.17 45.58 48.580000000000005 45.58 49.02 C 45.58 49.620000000000005 45.11 49.81 44.67 49.970000000000006 C 44.49 50.04 44.26 50 44.05 50 C 40.71 49.99 37.39 49.99 34.06 49.99 z" stroke-linecap="round"/>
</g>
		<g transform="matrix(1 0 0 1 2.08 11.03)" id="Layer_1">
<path style="stroke: none; stroke-width: 1; stroke-dasharray: none; stroke-linecap: butt; stroke-dashoffset: 0; stroke-linejoin: miter; stroke-miterlimit: 4; fill:#00684a; fill-rule: nonzero; opacity: 1;" vector-effect="non-scaling-stroke" transform=" translate(-34.08, -43.03)" d="M 34 43.98 C 30.63 43.98 27.259999999999998 43.98 23.89 43.98 C 23.650000000000002 43.98 23.32 44.01 23.17 43.87 C 22.91 43.629999999999995 22.610000000000003 43.279999999999994 22.580000000000002 42.949999999999996 C 22.53 42.519999999999996 22.85 42.17999999999999 23.330000000000002 42.10999999999999 C 23.55 42.07999999999999 23.790000000000003 42.06999999999999 24.01 42.06999999999999 C 30.660000000000004 42.06999999999999 37.32 42.059999999999995 43.97 42.07999999999999 C 44.35 42.07999999999999 44.78 42.13999999999999 45.089999999999996 42.32999999999999 C 45.76 42.73999999999999 45.74999999999999 43.29999999999999 45.089999999999996 43.71999999999999 C 44.83 43.88999999999999 44.47 43.96999999999999 44.16 43.96999999999999 C 40.78 43.99 37.39 43.98 34 43.98 z" stroke-linecap="round"/>
</g>
		<g transform="matrix(1 0 0 1 -15.26 5.01)" id="Layer_1">
<path style="stroke: none; stroke-width: 1; stroke-dasharray: none; stroke-linecap: butt; stroke-dashoffset: 0; stroke-linejoin: miter; stroke-miterlimit: 4; fill:#00684a; fill-rule: nonzero; opacity: 1;" vector-effect="non-scaling-stroke" transform=" translate(-16.74, -37.01)" d="M 16.71 37.97 C 16.21 37.97 15.71 37.99 15.21 37.97 C 14.590000000000002 37.94 14.180000000000001 37.55 14.170000000000002 37.019999999999996 C 14.160000000000002 36.489999999999995 14.570000000000002 36.08 15.190000000000001 36.059999999999995 C 16.21 36.03999999999999 17.23 36.029999999999994 18.240000000000002 36.059999999999995 C 18.96 36.08 19.310000000000002 36.44 19.3 37.019999999999996 C 19.29 37.589999999999996 18.91 37.919999999999995 18.21 37.959999999999994 C 17.71 37.99 17.21 37.97 16.71 37.97 z" stroke-linecap="round"/>
</g>
		<g transform="matrix(1 0 0 1 -15.27 17.03)" id="Layer_1">
<path style="stroke: none; stroke-width: 1; stroke-dasharray: none; stroke-linecap: butt; stroke-dashoffset: 0; stroke-linejoin: miter; stroke-miterlimit: 4; fill:#00684a; fill-rule: nonzero; opacity: 1;" vector-effect="non-scaling-stroke" transform=" translate(-16.73, -49.03)" d="M 16.76 48.12 C 17.32 48.12 17.880000000000003 48.099999999999994 18.44 48.12 C 18.990000000000002 48.14 19.27 48.48 19.290000000000003 49 C 19.310000000000002 49.54 19.01 49.92 18.500000000000004 49.94 C 17.340000000000003 49.989999999999995 16.17 49.989999999999995 15.010000000000003 49.949999999999996 C 14.500000000000004 49.92999999999999 14.110000000000003 49.42999999999999 14.180000000000003 48.959999999999994 C 14.250000000000004 48.449999999999996 14.540000000000003 48.11999999999999 15.080000000000004 48.099999999999994 C 15.640000000000004 48.07999999999999 16.200000000000003 48.099999999999994 16.760000000000005 48.099999999999994 C 16.76 48.11 16.76 48.12 16.76 48.12 z" stroke-linecap="round"/>
</g>
		<g transform="matrix(1 0 0 1 -15.27 11.03)" id="Layer_1">
<path style="stroke: none; stroke-width: 1; stroke-dasharray: none; stroke-linecap: butt; stroke-dashoffset: 0; stroke-linejoin: miter; stroke-miterlimit: 4; fill:#00684a; fill-rule: nonzero; opacity: 1;" vector-effect="non-scaling-stroke" transform=" translate(-16.73, -43.03)" d="M 16.71 43.98 C 16.21 43.98 15.71 43.989999999999995 15.21 43.98 C 14.590000000000002 43.959999999999994 14.180000000000001 43.57 14.170000000000002 43.04 C 14.160000000000002 42.51 14.560000000000002 42.1 15.190000000000001 42.089999999999996 C 16.23 42.06999999999999 17.270000000000003 42.06999999999999 18.3 42.099999999999994 C 18.970000000000002 42.12 19.310000000000002 42.48 19.29 43.05 C 19.279999999999998 43.599999999999994 18.9 43.94 18.259999999999998 43.98 C 18.22 43.98 18.18 43.98 18.139999999999997 43.98 C 17.66 43.98 17.19 43.98 16.71 43.98 z" stroke-linecap="round"/>
</g>
		<g transform="matrix(1 0 0 1 -2.2 -11.02)" id="Layer_1">
<path style="stroke: none; stroke-width: 1; stroke-dasharray: none; stroke-linecap: butt; stroke-dashoffset: 0; stroke-linejoin: miter; stroke-miterlimit: 4; fill: rgb(255,255,255); fill-rule: nonzero; opacity: 1;" vector-effect="non-scaling-stroke" transform=" translate(-29.8, -20.98)" d="M 30.91 28 C 30.15 28 29.47 28 28.71 28 C 28.71 27.53 28.71 27.08 28.71 26.63 C 28.71 25.49 28.720000000000002 24.34 28.71 23.2 C 28.7 22.38 28.34 22.03 27.51 22.02 C 25.85 22.009999999999998 24.19 22.02 22.490000000000002 22.02 C 22.490000000000002 21.32 22.490000000000002 20.66 22.490000000000002 19.91 C 22.82 19.91 23.12 19.91 23.42 19.91 C 24.770000000000003 19.91 26.12 19.92 27.470000000000002 19.91 C 28.390000000000004 19.91 28.700000000000003 19.6 28.700000000000003 18.67 C 28.710000000000004 17.340000000000003 28.700000000000003 16.01 28.700000000000003 14.670000000000002 C 28.700000000000003 14.440000000000001 28.700000000000003 14.220000000000002 28.700000000000003 13.950000000000001 C 29.450000000000003 13.950000000000001 30.140000000000004 13.950000000000001 30.900000000000002 13.950000000000001 C 30.900000000000002 15.31 30.900000000000002 16.630000000000003 30.900000000000002 17.96 C 30.900000000000002 19.85 30.96 19.91 32.86 19.91 C 34.04 19.91 35.23 19.91 36.41 19.91 C 36.629999999999995 19.91 36.86 19.91 37.11 19.91 C 37.11 20.63 37.11 21.27 37.11 21.990000000000002 C 36.9 22.000000000000004 36.68 22.020000000000003 36.46 22.020000000000003 C 35.03 22.020000000000003 33.59 22.020000000000003 32.160000000000004 22.020000000000003 C 31.220000000000002 22.020000000000003 30.890000000000004 22.360000000000003 30.890000000000004 23.310000000000002 C 30.91 24.85 30.91 26.39 30.91 28 z" stroke-linecap="round"/>
</g>
		<g transform="matrix(1 0 0 1 0 0)" id="Layer_1">
<rect style="stroke: none; stroke-width: 1; stroke-dasharray: none; stroke-linecap: butt; stroke-dashoffset: 0; stroke-linejoin: miter; stroke-miterlimit: 4; fill: none; fill-rule: nonzero; opacity: 1;" vector-effect="non-scaling-stroke" x="-33.565" y="-32" rx="0" ry="0" width="67.13" height="64"/>
</g>
</g>
</g>
</svg>